<svg height="512" viewBox="0 0 64 64" width="512" xmlns="http://www.w3.org/2000/svg"><g id="Blue"><rect fill="#7cb8eb" height="51" rx="2" width="58" x="3" y="3"/><path d="m7 7h50v28h-50z" fill="#cdeef6"/><path d="m22 35h20v15h-20z" fill="#7cb8eb"/><path d="m7 7h50v4h-50z" fill="#fff"/><g fill="#7cb8eb"><path d="m7 11h6v4h-6z"/><path d="m7 19h4v4h-4z"/><path d="m17 11h4v4h-4z"/><path d="m15 19h4v4h-4z"/><path d="m25 11h4v4h-4z"/><path d="m23 19h4v4h-4z"/><path d="m33 11h4v4h-4z"/><path d="m31 19h4v4h-4z"/><path d="m41 11h4v4h-4z"/><path d="m49 11h8v4h-8z"/><path d="m39 19h4v4h-4z"/><path d="m19 27h4v4h-4z"/><path d="m45 27h4v4h-4z"/><path d="m53 27h4v4h-4z"/><path d="m27 27h14v4h-14z"/><path d="m7 27h8v4h-8z"/><path d="m47 19h10v4h-10z"/></g><path d="m35 39a2 2 0 0 1 2 2v10a0 0 0 0 1 0 0h-4a0 0 0 0 1 0 0v-10a2 2 0 0 1 2-2z" fill="#cdeef6"/><path d="m37 45h4v6h-4z" fill="#cdeef6"/><path d="m41 45h4v6h-4z" fill="#cdeef6"/><path d="m45 45h2a2 2 0 0 1 2 2v4a0 0 0 0 1 0 0h-4a0 0 0 0 1 0 0v-6a0 0 0 0 1 0 0z" fill="#cdeef6"/><path d="m29.5 47.5 3.5 3.5v6l-6.5-6.5a2.122 2.122 0 0 1 0-3 2.122 2.122 0 0 1 3 0z" fill="#cdeef6"/><path d="m33 51h16v10h-16z" fill="#cdeef6"/><path d="m59 2h-54a3 3 0 0 0 -3 3v47a3 3 0 0 0 3 3h24.586l2.414 2.414v3.586a1 1 0 0 0 1 1h16a1 1 0 0 0 1-1v-6h9a3 3 0 0 0 3-3v-47a3 3 0 0 0 -3-3zm-27 52.586-4.793-4.793a1.121 1.121 0 0 1 1.586-1.586l3.207 3.207zm0-13.586v7.586l-1.793-1.793a3.122 3.122 0 0 0 -5.329 2.207h-1.878v-13h18v8h-3v-3a3 3 0 0 0 -6 0zm-17-9a1 1 0 0 0 1-1v-4a1 1 0 0 0 -1-1h-7v-2h3a1 1 0 0 0 1-1v-4a1 1 0 0 0 -1-1h-3v-2h5a1 1 0 0 0 1-1v-3h2v3a1 1 0 0 0 1 1h4a1 1 0 0 0 1-1v-3h2v3a1 1 0 0 0 1 1h4a1 1 0 0 0 1-1v-3h2v3a1 1 0 0 0 1 1h4a1 1 0 0 0 1-1v-3h2v3a1 1 0 0 0 1 1h4a1 1 0 0 0 1-1v-3h2v3a1 1 0 0 0 1 1h7v2h-9a1 1 0 0 0 -1 1v4a1 1 0 0 0 1 1h9v2h-3a1 1 0 0 0 -1 1v4a1 1 0 0 0 1 1h3v2h-48v-2zm-7-2v-2h6v2zm0-8v-2h2v2zm0-12v-2h48v2zm48 2v2h-6v-2zm-12 0v2h-2v-2zm-8 0v2h-2v-2zm-8 0v2h-2v-2zm-8 0v2h-2v-2zm-8 0v2h-4v-2zm44 8v2h-8v-2zm0 8v2h-2v-2zm-12 18v4h-2v-4zm-4 0v4h-2v-4zm-4-5v9h-2v-9a1 1 0 0 1 2 0zm12 19h-14v-8h14zm0-10h-2v-4h1a.894.894 0 0 1 1 1zm12 2a1 1 0 0 1 -1 1h-9v-6a2.87 2.87 0 0 0 -3-3h-4v-8h14a1 1 0 0 0 1-1v-28a1 1 0 0 0 -1-1h-50a1 1 0 0 0 -1 1v28a1 1 0 0 0 1 1h14v14a1 1 0 0 0 1 1h3.623c.057.068 1.963 2 1.963 2h-22.586a1 1 0 0 1 -1-1v-47a1 1 0 0 1 1-1h54a1 1 0 0 1 1 1z" fill="#4f83d1"/><path d="m20 23v-4a1 1 0 0 0 -1-1h-4a1 1 0 0 0 -1 1v4a1 1 0 0 0 1 1h4a1 1 0 0 0 1-1zm-2-1h-2v-2h2z" fill="#4f83d1"/><path d="m23 24h4a1 1 0 0 0 1-1v-4a1 1 0 0 0 -1-1h-4a1 1 0 0 0 -1 1v4a1 1 0 0 0 1 1zm1-4h2v2h-2z" fill="#4f83d1"/><path d="m31 24h4a1 1 0 0 0 1-1v-4a1 1 0 0 0 -1-1h-4a1 1 0 0 0 -1 1v4a1 1 0 0 0 1 1zm1-4h2v2h-2z" fill="#4f83d1"/><path d="m39 24h4a1 1 0 0 0 1-1v-4a1 1 0 0 0 -1-1h-4a1 1 0 0 0 -1 1v4a1 1 0 0 0 1 1zm1-4h2v2h-2z" fill="#4f83d1"/><path d="m18 27v4a1 1 0 0 0 1 1h4a1 1 0 0 0 1-1v-4a1 1 0 0 0 -1-1h-4a1 1 0 0 0 -1 1zm2 1h2v2h-2z" fill="#4f83d1"/><path d="m44 31a1 1 0 0 0 1 1h4a1 1 0 0 0 1-1v-4a1 1 0 0 0 -1-1h-4a1 1 0 0 0 -1 1zm2-3h2v2h-2z" fill="#4f83d1"/><path d="m26 27v4a1 1 0 0 0 1 1h14a1 1 0 0 0 1-1v-4a1 1 0 0 0 -1-1h-14a1 1 0 0 0 -1 1zm2 1h12v2h-12z" fill="#4f83d1"/></g></svg>